{
	"asset":{
		"generator":"Khronos glTF Blender I/O v4.3.47",
		"version":"2.0"
	},
	"extensionsUsed":[
		"KHR_materials_specular"
	],
	"scene":0,
	"scenes":[
		{
			"name":"Scene",
			"nodes":[
				0,
				1,
				2
			]
		}
	],
	"nodes":[
		{
			"mesh":0,
			"name":"Group18985"
		},
		{
			"mesh":1,
			"name":"Box002"
		},
		{
			"mesh":2,
			"name":"Object001"
		}
	],
	"materials":[
		{
			"doubleSided":true,
			"extensions":{
				"KHR_materials_specular":{
					"specularFactor":0
				}
			},
			"name":"default",
			"pbrMetallicRoughness":{
				"baseColorTexture":{
					"index":0
				},
				"roughnessFactor":0.858578622341156
			}
		}
	],
	"meshes":[
		{
			"name":"Mesh",
			"primitives":[
				{
					"attributes":{
						"POSITION":0,
						"NORMAL":1,
						"TEXCOORD_0":2
					},
					"indices":3,
					"material":0
				}
			]
		},
		{
			"name":"Mesh.001",
			"primitives":[
				{
					"attributes":{
						"POSITION":4,
						"NORMAL":5,
						"TEXCOORD_0":6
					},
					"indices":7,
					"material":0
				}
			]
		},
		{
			"name":"Mesh.002",
			"primitives":[
				{
					"attributes":{
						"POSITION":8,
						"NORMAL":9,
						"TEXCOORD_0":10
					},
					"indices":11,
					"material":0
				}
			]
		}
	],
	"textures":[
		{
			"sampler":0,
			"source":0
		}
	],
	"images":[
		{
			"bufferView":4,
			"mimeType":"image/png",
			"name":"default_Base_Color"
		}
	],
	"accessors":[
		{
			"bufferView":0,
			"componentType":5126,
			"count":256,
			"max":[
				0.31733599305152893,
				-0.0806410014629364,
				0.058437999337911606
			],
			"min":[
				-0.31733599305152893,
				-0.5076500177383423,
				-0.47673898935317993
			],
			"type":"VEC3"
		},
		{
			"bufferView":1,
			"componentType":5126,
			"count":256,
			"type":"VEC3"
		},
		{
			"bufferView":2,
			"componentType":5126,
			"count":256,
			"type":"VEC2"
		},
		{
			"bufferView":3,
			"componentType":5123,
			"count":1152,
			"type":"SCALAR"
		},
		{
			"bufferView":5,
			"componentType":5126,
			"count":2145,
			"max":[
				0.4604490101337433,
				0.3757419288158417,
				0.3642579913139343
			],
			"min":[
				-0.4604490101337433,
				-1.0053009986877441,
				-1.4105160236358643
			],
			"type":"VEC3"
		},
		{
			"bufferView":6,
			"componentType":5126,
			"count":2145,
			"type":"VEC3"
		},
		{
			"bufferView":7,
			"componentType":5126,
			"count":2145,
			"type":"VEC2"
		},
		{
			"bufferView":8,
			"componentType":5123,
			"count":11124,
			"type":"SCALAR"
		},
		{
			"bufferView":9,
			"componentType":5126,
			"count":130,
			"max":[
				0.1959719955921173,
				0.05310700088739395,
				0.20747999846935272
			],
			"min":[
				-0.1959719955921173,
				-0.10322500020265579,
				0.12931400537490845
			],
			"type":"VEC3"
		},
		{
			"bufferView":10,
			"componentType":5126,
			"count":130,
			"type":"VEC3"
		},
		{
			"bufferView":11,
			"componentType":5126,
			"count":130,
			"type":"VEC2"
		},
		{
			"bufferView":12,
			"componentType":5123,
			"count":672,
			"type":"SCALAR"
		}
	],
	"bufferViews":[
		{
			"buffer":0,
			"byteLength":3072,
			"byteOffset":0,
			"target":34962
		},
		{
			"buffer":0,
			"byteLength":3072,
			"byteOffset":3072,
			"target":34962
		},
		{
			"buffer":0,
			"byteLength":2048,
			"byteOffset":6144,
			"target":34962
		},
		{
			"buffer":0,
			"byteLength":2304,
			"byteOffset":8192,
			"target":34963
		},
		{
			"buffer":0,
			"byteLength":1969562,
			"byteOffset":10496
		},
		{
			"buffer":0,
			"byteLength":25740,
			"byteOffset":1980060,
			"target":34962
		},
		{
			"buffer":0,
			"byteLength":25740,
			"byteOffset":2005800,
			"target":34962
		},
		{
			"buffer":0,
			"byteLength":17160,
			"byteOffset":2031540,
			"target":34962
		},
		{
			"buffer":0,
			"byteLength":22248,
			"byteOffset":2048700,
			"target":34963
		},
		{
			"buffer":0,
			"byteLength":1560,
			"byteOffset":2070948,
			"target":34962
		},
		{
			"buffer":0,
			"byteLength":1560,
			"byteOffset":2072508,
			"target":34962
		},
		{
			"buffer":0,
			"byteLength":1040,
			"byteOffset":2074068,
			"target":34962
		},
		{
			"buffer":0,
			"byteLength":1344,
			"byteOffset":2075108,
			"target":34963
		}
	],
	"samplers":[
		{
			"magFilter":9729,
			"minFilter":9987
		}
	],
	"buffers":[
		{
			"byteLength":2076452,
			"uri":"data:application/octet-stream;base64,"
		}
	]
}
